<svg width="180" height="180" viewBox="0 0 180 180" fill="none" xmlns="http://www.w3.org/2000/svg">
<path d="M90 0C40.3745 0 0 40.3745 0 90C0 139.625 40.3745 180 90 180C139.625 180 180 139.625 180 90C180 40.3745 139.625 0 90 0ZM90.8654 41.5385C97.027 41.5385 103.05 43.3656 108.174 46.7888C113.297 50.2121 117.29 55.0776 119.648 60.7702C122.006 66.4629 122.623 72.7269 121.421 78.7701C120.219 84.8134 117.251 90.3645 112.894 94.7214C108.538 99.0783 102.986 102.045 96.9432 103.248C90.8999 104.45 84.6359 103.833 78.9433 101.475C73.2507 99.1167 68.3851 95.1237 64.9619 90.0005C61.5387 84.8772 59.7115 78.854 59.7115 72.6923C59.7115 64.4298 62.9938 56.5057 68.8363 50.6632C74.6788 44.8207 82.6029 41.5385 90.8654 41.5385ZM90 166.154C79.4962 166.158 69.1057 163.984 59.4849 159.769C49.864 155.553 41.222 149.388 34.1048 141.663C37.9298 121.855 72.2856 117.692 90 117.692C107.714 117.692 142.07 121.855 145.895 141.659C138.779 149.386 130.137 155.552 120.516 159.768C110.895 163.984 100.504 166.158 90 166.154Z" fill="white"/>
</svg>
