<svg width="116" height="20" viewBox="0 0 116 20" fill="none" xmlns="http://www.w3.org/2000/svg">
<g opacity="0.8">
<g clip-path="url(#clip0_301_5673)">
<path d="M3.63636 6.36364C4.60079 6.36364 5.52571 6.74675 6.20766 7.4287C6.88961 8.11065 7.27273 9.03558 7.27273 10C7.27273 10.9644 6.88961 11.8893 6.20766 12.5713C5.52571 13.2532 4.60079 13.6364 3.63636 13.6364C2.67194 13.6364 1.74702 13.2532 1.06507 12.5713C0.383116 11.8893 0 10.9644 0 10C0 9.03558 0.383116 8.11065 1.06507 7.4287C1.74702 6.74675 2.67194 6.36364 3.63636 6.36364M10 0C10.9644 0 11.8893 0.383116 12.5713 1.06507C13.2532 1.74702 13.6364 2.67194 13.6364 3.63636C13.6364 4.60079 13.2532 5.52571 12.5713 6.20766C11.8893 6.88961 10.9644 7.27273 10 7.27273C9.03558 7.27273 8.11065 6.88961 7.4287 6.20766C6.74675 5.52571 6.36364 4.60079 6.36364 3.63636C6.36364 2.67194 6.74675 1.74702 7.4287 1.06507C8.11065 0.383116 9.03558 0 10 0M10 12.7273C10.9644 12.7273 11.8893 13.1104 12.5713 13.7923C13.2532 14.4743 13.6364 15.3992 13.6364 16.3636C13.6364 17.3281 13.2532 18.253 12.5713 18.9349C11.8893 19.6169 10.9644 20 10 20C9.03558 20 8.11065 19.6169 7.4287 18.9349C6.74675 18.253 6.36364 17.3281 6.36364 16.3636C6.36364 15.3992 6.74675 14.4743 7.4287 13.7923C8.11065 13.1104 9.03558 12.7273 10 12.7273M16.3636 6.36364C17.3281 6.36364 18.253 6.74675 18.9349 7.4287C19.6169 8.11065 20 9.03558 20 10C20 10.9644 19.6169 11.8893 18.9349 12.5713C18.253 13.2532 17.3281 13.6364 16.3636 13.6364C15.3992 13.6364 14.4743 13.2532 13.7923 12.5713C13.1104 11.8893 12.7273 10.9644 12.7273 10C12.7273 9.03558 13.1104 8.11065 13.7923 7.4287C14.4743 6.74675 15.3992 6.36364 16.3636 6.36364ZM16.3636 8.18182C15.8814 8.18182 15.419 8.37338 15.078 8.71435C14.737 9.05533 14.5455 9.51779 14.5455 10C14.5455 10.4822 14.737 10.9447 15.078 11.2856C15.419 11.6266 15.8814 11.8182 16.3636 11.8182C16.8458 11.8182 17.3083 11.6266 17.6493 11.2856C17.9903 10.9447 18.1818 10.4822 18.1818 10C18.1818 9.51779 17.9903 9.05533 17.6493 8.71435C17.3083 8.37338 16.8458 8.18182 16.3636 8.18182ZM10 14.5455C9.51779 14.5455 9.05533 14.737 8.71435 15.078C8.37338 15.419 8.18182 15.8814 8.18182 16.3636C8.18182 16.8458 8.37338 17.3083 8.71435 17.6493C9.05533 17.9903 9.51779 18.1818 10 18.1818C10.4822 18.1818 10.9447 17.9903 11.2856 17.6493C11.6266 17.3083 11.8182 16.8458 11.8182 16.3636C11.8182 15.8814 11.6266 15.419 11.2856 15.078C10.9447 14.737 10.4822 14.5455 10 14.5455ZM10 1.81818C9.51779 1.81818 9.05533 2.00974 8.71435 2.35071C8.37338 2.69169 8.18182 3.15415 8.18182 3.63636C8.18182 4.11858 8.37338 4.58104 8.71435 4.92201C9.05533 5.26299 9.51779 5.45455 10 5.45455C10.4822 5.45455 10.9447 5.26299 11.2856 4.92201C11.6266 4.58104 11.8182 4.11858 11.8182 3.63636C11.8182 3.15415 11.6266 2.69169 11.2856 2.35071C10.9447 2.00974 10.4822 1.81818 10 1.81818Z" fill="white"/>
</g>
<path d="M36.36 5.54C34.9067 5.54 33.8533 5.94667 33.2 6.76C32.56 7.56 32.24 8.66 32.24 10.06C32.24 10.74 32.32 11.36 32.48 11.92C32.64 12.4667 32.88 12.94 33.2 13.34C33.52 13.74 33.92 14.0533 34.4 14.28C34.88 14.4933 35.44 14.6 36.08 14.6C36.4267 14.6 36.72 14.5933 36.96 14.58C37.2133 14.5667 37.4333 14.54 37.62 14.5V9.68H40.74V16.54C40.3667 16.6867 39.7667 16.84 38.94 17C38.1133 17.1733 37.0933 17.26 35.88 17.26C34.84 17.26 33.8933 17.1 33.04 16.78C32.2 16.46 31.48 15.9933 30.88 15.38C30.28 14.7667 29.8133 14.0133 29.48 13.12C29.16 12.2267 29 11.2067 29 10.06C29 8.9 29.18 7.87333 29.54 6.98C29.9 6.08667 30.3933 5.33333 31.02 4.72C31.6467 4.09333 32.38 3.62 33.22 3.3C34.0733 2.98 34.98 2.82 35.94 2.82C36.5933 2.82 37.18 2.86667 37.7 2.96C38.2333 3.04 38.6867 3.14 39.06 3.26C39.4467 3.36667 39.76 3.48 40 3.6C40.2533 3.72 40.4333 3.81333 40.54 3.88L39.64 6.38C39.2133 6.15333 38.72 5.96 38.16 5.8C37.6133 5.62667 37.0133 5.54 36.36 5.54ZM47.263 14.92C47.5563 14.92 47.8363 14.9133 48.103 14.9C48.3696 14.8867 48.583 14.8667 48.743 14.84V12.58C48.623 12.5533 48.443 12.5267 48.203 12.5C47.963 12.4733 47.743 12.46 47.543 12.46C47.263 12.46 46.9963 12.48 46.743 12.52C46.503 12.5467 46.2896 12.6067 46.103 12.7C45.9163 12.7933 45.7696 12.92 45.663 13.08C45.5563 13.24 45.503 13.44 45.503 13.68C45.503 14.1467 45.6563 14.4733 45.963 14.66C46.283 14.8333 46.7163 14.92 47.263 14.92ZM47.023 6.2C47.903 6.2 48.6363 6.3 49.223 6.5C49.8096 6.7 50.2763 6.98667 50.623 7.36C50.983 7.73333 51.2363 8.18667 51.383 8.72C51.5296 9.25333 51.603 9.84667 51.603 10.5V16.7C51.1763 16.7933 50.583 16.9 49.823 17.02C49.063 17.1533 48.143 17.22 47.063 17.22C46.383 17.22 45.763 17.16 45.203 17.04C44.6563 16.92 44.183 16.7267 43.783 16.46C43.383 16.18 43.0763 15.82 42.863 15.38C42.6496 14.94 42.543 14.4 42.543 13.76C42.543 13.1467 42.663 12.6267 42.903 12.2C43.1563 11.7733 43.4896 11.4333 43.903 11.18C44.3163 10.9267 44.7896 10.7467 45.323 10.64C45.8563 10.52 46.4096 10.46 46.983 10.46C47.3696 10.46 47.7096 10.48 48.003 10.52C48.3096 10.5467 48.5563 10.5867 48.743 10.64V10.36C48.743 9.85333 48.5896 9.44667 48.283 9.14C47.9763 8.83333 47.443 8.68 46.683 8.68C46.1763 8.68 45.6763 8.72 45.183 8.8C44.6896 8.86667 44.263 8.96667 43.903 9.1L43.523 6.7C43.6963 6.64667 43.9096 6.59333 44.163 6.54C44.4296 6.47333 44.7163 6.42 45.023 6.38C45.3296 6.32667 45.6496 6.28667 45.983 6.26C46.3296 6.22 46.6763 6.2 47.023 6.2ZM59.8777 11.42C59.8777 10.46 59.751 9.78 59.4977 9.38C59.2577 8.98 58.8377 8.78 58.2377 8.78C58.051 8.78 57.8577 8.79333 57.6577 8.82C57.4577 8.83333 57.2643 8.85333 57.0777 8.88V17H54.0977V6.84C54.351 6.77333 54.6443 6.70667 54.9777 6.64C55.3243 6.56 55.6843 6.49333 56.0577 6.44C56.4443 6.37333 56.8377 6.32667 57.2377 6.3C57.6377 6.26 58.031 6.24 58.4177 6.24C59.1777 6.24 59.791 6.34 60.2577 6.54C60.7377 6.72667 61.131 6.95333 61.4377 7.22C61.8643 6.91333 62.351 6.67333 62.8977 6.5C63.4577 6.32667 63.971 6.24 64.4377 6.24C65.2777 6.24 65.9643 6.36 66.4977 6.6C67.0443 6.82667 67.4777 7.15333 67.7977 7.58C68.1177 8.00667 68.3377 8.51333 68.4577 9.1C68.5777 9.68667 68.6377 10.34 68.6377 11.06V17H65.6577V11.42C65.6577 10.46 65.531 9.78 65.2777 9.38C65.0377 8.98 64.6177 8.78 64.0177 8.78C63.8577 8.78 63.631 8.82 63.3377 8.9C63.0577 8.98 62.8243 9.08 62.6377 9.2C62.731 9.50667 62.791 9.83333 62.8177 10.18C62.8443 10.5133 62.8577 10.8733 62.8577 11.26V17H59.8777V11.42ZM70.6438 11.82C70.6438 10.8867 70.7838 10.0733 71.0638 9.38C71.3571 8.67333 71.7371 8.08667 72.2038 7.62C72.6704 7.15333 73.2038 6.8 73.8038 6.56C74.4171 6.32 75.0438 6.2 75.6838 6.2C77.1771 6.2 78.3571 6.66 79.2238 7.58C80.0904 8.48667 80.5238 9.82667 80.5238 11.6C80.5238 11.7733 80.5171 11.9667 80.5038 12.18C80.4904 12.38 80.4771 12.56 80.4638 12.72H73.7038C73.7704 13.3333 74.0571 13.82 74.5638 14.18C75.0704 14.54 75.7504 14.72 76.6038 14.72C77.1504 14.72 77.6838 14.6733 78.2038 14.58C78.7371 14.4733 79.1704 14.3467 79.5038 14.2L79.9038 16.62C79.7438 16.7 79.5304 16.78 79.2638 16.86C78.9971 16.94 78.6971 17.0067 78.3638 17.06C78.0438 17.1267 77.6971 17.18 77.3238 17.22C76.9504 17.26 76.5771 17.28 76.2038 17.28C75.2571 17.28 74.4304 17.14 73.7238 16.86C73.0304 16.58 72.4504 16.2 71.9838 15.72C71.5304 15.2267 71.1904 14.6467 70.9638 13.98C70.7504 13.3133 70.6438 12.5933 70.6438 11.82ZM77.6438 10.68C77.6304 10.4267 77.5838 10.18 77.5038 9.94C77.4371 9.7 77.3238 9.48667 77.1638 9.3C77.0171 9.11333 76.8238 8.96 76.5838 8.84C76.3571 8.72 76.0704 8.66 75.7238 8.66C75.3904 8.66 75.1038 8.72 74.8638 8.84C74.6238 8.94667 74.4238 9.09333 74.2638 9.28C74.1038 9.46667 73.9771 9.68667 73.8838 9.94C73.8038 10.18 73.7438 10.4267 73.7038 10.68H77.6438ZM85.6434 14.86C86.1901 14.86 86.5768 14.8067 86.8034 14.7C87.0301 14.5933 87.1434 14.3867 87.1434 14.08C87.1434 13.84 86.9968 13.6333 86.7034 13.46C86.4101 13.2733 85.9634 13.0667 85.3634 12.84C84.8968 12.6667 84.4701 12.4867 84.0834 12.3C83.7101 12.1133 83.3901 11.8933 83.1234 11.64C82.8568 11.3733 82.6501 11.06 82.5034 10.7C82.3568 10.34 82.2834 9.90667 82.2834 9.4C82.2834 8.41333 82.6501 7.63333 83.3834 7.06C84.1168 6.48667 85.1234 6.2 86.4034 6.2C87.0434 6.2 87.6568 6.26 88.2434 6.38C88.8301 6.48667 89.2968 6.60667 89.6434 6.74L89.1234 9.06C88.7768 8.94 88.3968 8.83333 87.9834 8.74C87.5834 8.64667 87.1301 8.6 86.6234 8.6C85.6901 8.6 85.2234 8.86 85.2234 9.38C85.2234 9.5 85.2434 9.60667 85.2834 9.7C85.3234 9.79333 85.4034 9.88667 85.5234 9.98C85.6434 10.06 85.8034 10.1533 86.0034 10.26C86.2168 10.3533 86.4834 10.46 86.8034 10.58C87.4568 10.82 87.9968 11.06 88.4234 11.3C88.8501 11.5267 89.1834 11.78 89.4234 12.06C89.6768 12.3267 89.8501 12.6267 89.9434 12.96C90.0501 13.2933 90.1034 13.68 90.1034 14.12C90.1034 15.16 89.7101 15.9467 88.9234 16.48C88.1501 17.0133 87.0501 17.28 85.6234 17.28C84.6901 17.28 83.9101 17.2 83.2834 17.04C82.6701 16.88 82.2434 16.7467 82.0034 16.64L82.5034 14.22C83.0101 14.42 83.5301 14.58 84.0634 14.7C84.5968 14.8067 85.1234 14.86 85.6434 14.86ZM95.0505 15.42C95.0505 16.02 94.8571 16.48 94.4705 16.8C94.0971 17.1067 93.6705 17.26 93.1905 17.26C92.7105 17.26 92.2771 17.1067 91.8905 16.8C91.5171 16.48 91.3305 16.02 91.3305 15.42C91.3305 14.82 91.5171 14.3667 91.8905 14.06C92.2771 13.74 92.7105 13.58 93.1905 13.58C93.6705 13.58 94.0971 13.74 94.4705 14.06C94.8571 14.3667 95.0505 14.82 95.0505 15.42ZM103.192 9.12C102.926 9.05333 102.612 8.98667 102.252 8.92C101.892 8.84 101.506 8.8 101.092 8.8C100.906 8.8 100.679 8.82 100.412 8.86C100.159 8.88667 99.9657 8.92 99.8323 8.96V17H96.8523V7.04C97.3857 6.85333 98.0123 6.68 98.7323 6.52C99.4657 6.34667 100.279 6.26 101.172 6.26C101.332 6.26 101.526 6.27333 101.752 6.3C101.979 6.31333 102.206 6.34 102.432 6.38C102.659 6.40667 102.886 6.44667 103.112 6.5C103.339 6.54 103.532 6.59333 103.692 6.66L103.192 9.12ZM114.07 16.64C113.563 16.7867 112.91 16.92 112.11 17.04C111.31 17.1733 110.47 17.24 109.59 17.24C108.697 17.24 107.95 17.12 107.35 16.88C106.763 16.64 106.297 16.3067 105.95 15.88C105.603 15.44 105.357 14.92 105.21 14.32C105.063 13.72 104.99 13.06 104.99 12.34V6.48H107.97V11.98C107.97 12.94 108.097 13.6333 108.35 14.06C108.603 14.4867 109.077 14.7 109.77 14.7C109.983 14.7 110.21 14.6933 110.45 14.68C110.69 14.6533 110.903 14.6267 111.09 14.6V6.48H114.07V16.64Z" fill="white"/>
</g>
<defs>
<clipPath id="clip0_301_5673">
<rect width="20" height="20" fill="white"/>
</clipPath>
</defs>
</svg>
