<svg width="456" height="251" viewBox="0 0 456 251" fill="none" xmlns="http://www.w3.org/2000/svg">
<path d="M51.19 50.45L33.13 39.85C31.24 38.76 29.62 37.24 28.28 35.3C26.94 33.36 26.26 31.2 26.26 28.81C26.26 25.53 27.13 22.84 28.87 20.75C30.61 18.66 33.12 17.62 36.41 17.62C39.1 17.62 41.36 18.24 43.2 19.49C45.04 20.74 46.61 22.75 47.9 25.53C49.19 28.32 50.04 30.11 50.44 30.9L68.95 22.54C66.36 15.08 62.38 9.46 57.01 5.67C51.64 1.89 45.12 0 37.46 0C30.89 0 25 1.39 19.77 4.18C14.55 6.97 10.42 10.9 7.38 15.97C4.34 21.04 2.83 26.82 2.83 33.28C2.83 39.35 4.52 44.82 7.9 49.7C11.28 54.58 15.81 58.61 21.48 61.79L41.03 73.43C43.22 74.82 45.01 76.66 46.4 78.95C47.79 81.24 48.49 83.78 48.49 86.56C48.49 89.55 47.47 92.28 45.43 94.77C43.39 97.26 41.08 98.5 38.49 98.5C34.51 98.5 31.2 97.11 28.56 94.32C25.92 91.54 23.16 87.66 20.28 82.68L18.49 79.69L0 88.36C2.88 96.82 7.44 103.56 13.66 108.58C19.88 113.61 27.51 116.12 36.57 116.12C43.24 116.12 49.28 114.63 54.7 111.64C60.12 108.65 64.4 104.45 67.54 99.03C70.67 93.61 72.24 87.36 72.24 80.3C71.54 67.96 64.53 58.01 51.2 50.45H51.19Z" fill="#5735DA"/>
<path d="M108.5 70C116.76 70 124.05 69.23 130.37 67.69C136.69 66.15 142.01 62.86 146.34 57.84C150.67 52.82 152.83 45.43 152.83 35.68C152.83 24.93 150.27 17.12 145.14 12.25C140.01 7.38 134.12 4.47 127.45 3.52C120.78 2.58 111.83 2.1 100.59 2.1H86.56V114.93L108.5 113.14V70ZM108.65 19.55H111.78C118.44 19.55 123.32 20.65 126.41 22.83C129.49 25.02 131.04 29.25 131.04 35.52C131.04 41.79 129.37 46.27 126.04 48.65C122.71 51.04 118.15 52.23 112.38 52.23H108.65V19.55Z" fill="#DF676A"/>
<path d="M224.17 68.34H188.05V46.26H211.48L211.63 33.07H188.05V14.33H221.19L222.98 2.09H166.11V80.59H222.38L224.17 68.34Z" fill="white"/>
<path d="M296.26 68.34H260.14V46.26H283.57L283.72 33.07H260.14V14.33H293.27L295.06 2.09H238.2V80.59H294.47L296.26 68.34Z" fill="#98E5DC"/>
<path d="M359.98 106.34C365.95 101.22 370.3 94.47 373.04 86.12C375.78 77.76 377.14 68.56 377.14 58.51C377.14 39.61 373.51 25.48 366.24 16.12C358.98 6.77 347.98 2.09 333.26 2.09H310.28V114.03H337.15C346.4 114.03 354.02 111.47 359.99 106.34H359.98ZM332.07 96.56V19.55H334.61C340.68 19.55 345.23 21.52 348.27 25.44C351.3 29.37 353.24 34 354.09 39.32C354.93 44.64 355.36 50.74 355.36 57.6V62.67C355.36 72.22 353.89 80.26 350.96 86.77C348.02 93.29 342.77 96.55 335.21 96.55H332.08L332.07 96.56Z" fill="#DF676A"/>
<path d="M436.55 2.09L419.98 48.66L404.61 2.09H380.58L407.44 69.7V241.67L429.53 239.88V67.16L455.35 2.09H436.55Z" fill="#5735DA"/>
<path d="M1.64 154.58H24.48V249.95L46.27 248.16V154.58H67.16L68.95 137.12H3.28L1.64 154.58Z" fill="white"/>
<path d="M132.83 196.67C138 193.69 141.96 189.95 144.7 185.48C147.44 181 148.8 175.28 148.8 168.32C148.8 157.78 145.17 149.94 137.9 144.81C130.64 139.69 120.59 137.12 107.75 137.12L81.18 138.02V249.96L102.97 248.17V199.96H111.48L131.48 251L152.97 245.18L142.82 221L132.82 196.67H132.83ZM122.61 180.63C119.67 182.77 115.62 183.84 110.45 183.84H102.99V154.59H113.29C122.44 154.59 127.02 159.22 127.02 168.47C127.02 174.44 125.55 178.5 122.62 180.63H122.61Z" fill="#DF676A"/>
<path d="M184.44 138.47L160.86 249.06H180.41L185.19 225.03H211.91L215.94 249.06L239.82 248.16L215.64 137.12L184.45 138.46L184.44 138.47ZM189.22 207.12L197.58 153.54L207.88 207.12H189.22Z" fill="#98E5DC"/>
<path d="M270.88 137.12H247.9V249.06H274.77C284.02 249.06 291.64 246.5 297.6 241.37C303.57 236.25 307.92 229.5 310.66 221.15C313.4 212.79 314.76 203.59 314.76 193.54C314.76 174.64 311.13 160.51 303.86 151.15C296.6 141.8 285.6 137.12 270.88 137.12ZM292.97 197.72C292.97 207.27 291.5 215.31 288.57 221.82C285.63 228.34 280.38 231.6 272.82 231.6H269.69V154.59H272.23C278.3 154.59 282.85 156.56 285.89 160.48C288.92 164.41 290.86 169.04 291.71 174.36C292.55 179.68 292.98 185.78 292.98 192.64V197.71L292.97 197.72Z" fill="#5735DA"/>
<path d="M352.52 200.11H375.95L376.1 181.3H352.52V154.58H385.65L387.45 137.12H330.58V249.06H386.85L388.64 231.6H352.52V200.11Z" fill="white"/>
<path d="M141.88 114.03H289.26L292.08 96.56H144.7L141.88 114.03Z" fill="white"/>
</svg>
