<svg width="19" height="19" viewBox="0 0 19 19" fill="none" xmlns="http://www.w3.org/2000/svg">
<g clip-path="url(#clip0_411_5923)">
<path d="M3.32288 5.81505C4.20417 5.81505 5.04936 6.16514 5.67252 6.7883C6.29568 7.41147 6.64577 8.25665 6.64577 9.13794C6.64577 10.0192 6.29568 10.8644 5.67252 11.4876C5.04936 12.1107 4.20417 12.4608 3.32288 12.4608C2.4416 12.4608 1.59641 12.1107 0.97325 11.4876C0.350089 10.8644 0 10.0192 0 9.13794C0 8.25665 0.350089 7.41147 0.97325 6.7883C1.59641 6.16514 2.4416 5.81505 3.32288 5.81505M9.13793 7.62939e-06C10.0192 7.62939e-06 10.8644 0.350096 11.4876 0.973258C12.1107 1.59642 12.4608 2.44161 12.4608 3.32289C12.4608 4.20418 12.1107 5.04936 11.4876 5.67253C10.8644 6.29569 10.0192 6.64578 9.13793 6.64578C8.25665 6.64578 7.41146 6.29569 6.7883 5.67253C6.16514 5.04936 5.81505 4.20418 5.81505 3.32289C5.81505 2.44161 6.16514 1.59642 6.7883 0.973258C7.41146 0.350096 8.25665 7.62939e-06 9.13793 7.62939e-06M9.13793 11.6301C10.0192 11.6301 10.8644 11.9802 11.4876 12.6034C12.1107 13.2265 12.4608 14.0717 12.4608 14.953C12.4608 15.8343 12.1107 16.6795 11.4876 17.3026C10.8644 17.9258 10.0192 18.2759 9.13793 18.2759C8.25665 18.2759 7.41146 17.9258 6.7883 17.3026C6.16514 16.6795 5.81505 15.8343 5.81505 14.953C5.81505 14.0717 6.16514 13.2265 6.7883 12.6034C7.41146 11.9802 8.25665 11.6301 9.13793 11.6301M14.953 5.81505C15.8343 5.81505 16.6794 6.16514 17.3026 6.7883C17.9258 7.41147 18.2759 8.25665 18.2759 9.13794C18.2759 10.0192 17.9258 10.8644 17.3026 11.4876C16.6794 12.1107 15.8343 12.4608 14.953 12.4608C14.0717 12.4608 13.2265 12.1107 12.6033 11.4876C11.9802 10.8644 11.6301 10.0192 11.6301 9.13794C11.6301 8.25665 11.9802 7.41147 12.6033 6.7883C13.2265 6.16514 14.0717 5.81505 14.953 5.81505ZM14.953 7.4765C14.5123 7.4765 14.0897 7.65154 13.7782 7.96312C13.4666 8.2747 13.2915 8.6973 13.2915 9.13794C13.2915 9.57858 13.4666 10.0012 13.7782 10.3128C14.0897 10.6243 14.5123 10.7994 14.953 10.7994C15.3936 10.7994 15.8162 10.6243 16.1278 10.3128C16.4394 10.0012 16.6144 9.57858 16.6144 9.13794C16.6144 8.6973 16.4394 8.2747 16.1278 7.96312C15.8162 7.65154 15.3936 7.4765 14.953 7.4765ZM9.13793 13.2915C8.69729 13.2915 8.27469 13.4666 7.96311 13.7782C7.65153 14.0897 7.47649 14.5123 7.47649 14.953C7.47649 15.3936 7.65153 15.8162 7.96311 16.1278C8.27469 16.4394 8.69729 16.6144 9.13793 16.6144C9.57857 16.6144 10.0012 16.4394 10.3127 16.1278C10.6243 15.8162 10.7994 15.3936 10.7994 14.953C10.7994 14.5123 10.6243 14.0897 10.3127 13.7782C10.0012 13.4666 9.57857 13.2915 9.13793 13.2915ZM9.13793 1.66145C8.69729 1.66145 8.27469 1.83649 7.96311 2.14807C7.65153 2.45966 7.47649 2.88225 7.47649 3.32289C7.47649 3.76353 7.65153 4.18613 7.96311 4.49771C8.27469 4.80929 8.69729 4.98433 9.13793 4.98433C9.57857 4.98433 10.0012 4.80929 10.3127 4.49771C10.6243 4.18613 10.7994 3.76353 10.7994 3.32289C10.7994 2.88225 10.6243 2.45966 10.3127 2.14807C10.0012 1.83649 9.57857 1.66145 9.13793 1.66145Z" fill="#5736DB"/>
</g>
<defs>
<clipPath id="clip0_411_5923">
<rect width="18.2759" height="18.2759" fill="white"/>
</clipPath>
</defs>
</svg>
